<svg version="1.1" xmlns="http://www.w3.org/2000/svg" style="display: block;" viewBox="0 0 2048 1152" width="1280" height="720" preserveAspectRatio="none">
<defs>
	<linearGradient id="Gradient1" gradientUnits="userSpaceOnUse" x1="351.103" y1="351.103" x2="2.89348" y2="3.10659">
		<stop class="stop0" offset="0" stop-opacity="1" stop-color="rgb(105,91,255)"/>
		<stop class="stop1" offset="1" stop-opacity="1" stop-color="rgb(150,159,255)"/>
	</linearGradient>
	<linearGradient id="Gradient2" gradientUnits="userSpaceOnUse" x1="1836.13" y1="1326.06" x2="531.861" y2="121.409">
		<stop class="stop0" offset="0" stop-opacity="1" stop-color="rgb(10,5,206)"/>
		<stop class="stop1" offset="1" stop-opacity="1" stop-color="rgb(91,50,255)"/>
	</linearGradient>
</defs>
<path transform="translate(0,0)" fill="url(#Gradient2)" d="M 0 0 L 1220.34 0 L 2048 0 L 2048 646.278 L 2048 1152 L 1583.19 1152 L 2.54314 1152 L 0 1152 L 0 0 z"/>
<path transform="translate(0,0)" fill="url(#Gradient1)" d="M 0 0 L 1220.34 0 C 1199.58 4.69396 1177.91 3.10227 1156.41 3.09099 L 1076.88 3.06341 L 779.706 3.08899 C 756.106 3.09292 722.289 3.016 697.802 3.0206 C 694.43 4.71736 692.439 5.79916 690.261 8.96557 C 688.902 10.9409 686.472 16.5834 685.042 17.9526 C 671.56 30.8581 657.219 43.2522 644.061 56.4995 L 496.17 202.542 L 239.883 458.829 C 234.98 463.728 230.461 470.126 225.597 475.502 C 210.223 492.494 191.729 505.45 177.124 523 C 169.687 531.937 160.322 540.162 152.525 548.867 C 127.345 567.626 111.2 594.363 85.3859 613.129 C 80.6314 617.741 76.804 624.429 72.1422 628.954 C 57.1996 643.459 42.2429 657.13 28.9061 673.213 C 25.4128 677.426 7.22594 697.164 4.0318 697.747 L 3.59261 695.936 C 1.82981 726.608 3.41525 768.619 3.39307 800.206 L 3.29901 1019.82 C 3.13449 1054.89 3.15499 1089.95 3.36053 1125.01 C 3.35469 1130.21 2.00522 1147.12 3.08053 1150.57 L 2.54314 1152 L 0 1152 L 0 0 z"/>
<path transform="translate(0,0)" fill="rgb(27,47,189)" d="M 1583.19 1152 C 1580.45 1151.27 1574.45 1151.01 1571.36 1150.78 C 1573.8 1147.78 1605.84 1148.89 1611.98 1148.95 L 1675.91 1148.98 L 1897.6 1148.72 C 1909.08 1148.76 1988.15 1149.94 1994.93 1147.21 C 1996.14 1144.69 1994.36 1141.95 1995.05 1140.37 C 1999.98 1129.03 2015.23 1130.59 2014.95 1115.53 C 2014.94 1115.2 2032.38 1100.97 2034.06 1099.72 C 2038.31 1099.05 2038.65 1099.74 2042.96 1102.28 C 2043.49 1101.93 2044.01 1101.58 2044.54 1101.23 C 2045.72 958.064 2044.47 814.807 2045.01 671.616 C 2045.03 664.827 2044.5 645.976 2046.36 640.326 L 2047.33 641.022 L 2048 646.278 L 2048 1152 L 1583.19 1152 z"/>
<path transform="translate(0,0)" fill="rgb(254,254,254)" d="M 1010.71 346.443 C 1077.39 344.081 1163.87 358.171 1214.02 402.025 C 1280.68 463.519 1215.45 520.958 1153.42 542.604 C 1112.08 557.033 1081.98 561.186 1038.93 563.654 C 971.549 565.018 886.223 553.751 834.991 509.356 C 764.341 448.134 835.429 385.743 898.326 366.152 C 940.44 353.033 968.376 348.589 1010.71 346.443 z"/>
<path transform="translate(0,0)" fill="rgb(254,254,254)" d="M 1240.71 636.714 C 1243.18 646.502 1242 692.678 1241.04 703.947 C 1237.41 746.735 1178.83 776.983 1143.19 787.92 C 1056.22 814.606 951.284 812.785 868.615 773.181 C 841.34 760.115 816.949 739.661 807.553 710.475 C 805.127 699.794 806.392 650.341 806.56 636.106 C 823.108 681.921 859.464 698.203 903.186 715.028 C 989.088 748.083 1206.3 741.929 1240.71 636.714 z"/>
<path transform="translate(0,0)" fill="rgb(254,254,254)" d="M 1240.7 515.714 C 1243.23 526.085 1241.95 570.357 1241.1 582.487 C 1238.13 625.004 1179.9 655.535 1144.63 666.55 C 1057.82 693.669 952.708 692.016 869.805 652.914 C 841.962 639.782 817.294 619.34 807.557 589.699 C 805.021 578.1 806.348 529.18 806.561 515.124 C 823.715 562.453 861.843 578.621 907.177 595.424 C 992.182 626.932 1207.67 619.881 1240.7 515.714 z"/>
</svg>