<svg xmlns="http://www.w3.org/2000/svg" viewBox="0 0 600 360" role="img" aria-labelledby="titleBlue"><title id="titleBlue">Blue project thumbnail</title><defs><linearGradient id="gradBlue" x1="0" x2="1" y1="0" y2="1"><stop offset="0%" stop-color="#0ea5e9"/><stop offset="100%" stop-color="#2563eb"/></linearGradient></defs><rect width="600" height="360" rx="30" fill="url(#gradBlue)"/><circle cx="300" cy="180" r="62" fill="rgba(255,255,255,0.88)"/><path d="M280 170h20v10h-20zM300 150h20a10 10 0 0 1 10 10v20a10 10 0 0 1-10 10h-20a10 10 0 0 1-10-10v-20a10 10 0 0 1 10-10zm-32 0h20a10 10 0 0 1 10 10v20a10 10 0 0 1-10 10h-20a10 10 0 0 1-10-10v-20a10 10 0 0 1 10-10z" fill="#0ea5e9"/></svg>