<svg xmlns="http://www.w3.org/2000/svg" viewBox="0 0 600 360" role="img" aria-labelledby="titleGreen"><title id="titleGreen">Green project thumbnail</title><defs><linearGradient id="gradGreen" x1="0" x2="1" y1="0" y2="1"><stop offset="0%" stop-color="#22c55e"/><stop offset="100%" stop-color="#16a34a"/></linearGradient></defs><rect width="600" height="360" rx="30" fill="url(#gradGreen)"/><circle cx="300" cy="180" r="62" fill="rgba(255,255,255,0.88)"/><path d="M274 150h52a10 10 0 0 1 10 10v12a10 10 0 0 1-10 10h-32v12h14a10 10 0 0 1 10 10v12a10 10 0 0 1-10 10h-34a10 10 0 0 1-10-10v-44a10 10 0 0 1 10-10zm0 12v16h34v-16h-34z" fill="#22c55e"/></svg>