<svg version="1.1" xmlns="http://www.w3.org/2000/svg" style="display: block;" viewBox="0 0 2048 1152" width="1280" height="720" preserveAspectRatio="none">
<defs>
	<linearGradient id="Gradient1" gradientUnits="userSpaceOnUse" x1="1748.21" y1="1276.58" x2="614.304" y2="179.645">
		<stop class="stop0" offset="0" stop-opacity="1" stop-color="rgb(0,212,54)"/>
		<stop class="stop1" offset="1" stop-opacity="1" stop-color="rgb(38,255,129)"/>
	</linearGradient>
</defs>
<path transform="translate(0,0)" fill="url(#Gradient1)" d="M 0 0 L 866.268 0 L 2048 0 L 2048 593.459 L 2048 1152 L 1542.68 1152 L 0 1152 L 0 870.495 L 0 0 z"/>
<path transform="translate(0,0)" fill="rgb(94,238,137)" d="M 0 0 L 866.268 0 C 866.088 0.143055 865.907 0.286109 865.726 0.429164 C 857.989 6.15067 840.547 2.2151 831.228 2.66194 C 827.379 2.84651 826.066 3.30241 821.817 3.91266 C 818.517 4.38671 813.599 1.11208 811.261 4.88474 C 804.441 15.8887 788.866 25.6546 780.24 36.8599 C 776.161 40.984 769.251 44.6512 765.442 48.7778 C 761.873 52.6432 759.074 58.06 755.041 62.0695 C 746.229 70.8321 737.251 79.0209 729.037 88.4224 C 724.358 92.7039 718.866 95.9692 714.164 100.252 C 708.363 105.535 704.689 116.596 697.806 119.978 C 689.235 124.189 684.974 132.245 678.28 138.67 C 672.931 143.804 666.909 148.243 661.826 153.643 C 657.692 157.878 652.306 165.962 648.712 169.205 C 641.693 175.539 629.585 183.438 622.983 190.163 C 615.228 198.259 607.301 210.515 599.236 217.932 C 586.081 230.03 572.796 240.435 560.686 253.779 C 559.178 255.442 546.4 271.608 548.279 270.291 C 537.216 278.045 527.217 287.191 517.337 296.454 C 510.295 302.965 500.511 318.289 495.024 322.854 C 485.19 331.037 477.405 336.995 467.598 346.087 C 458.824 354.219 452.136 366.091 445.119 372.787 C 436.745 380.776 422.386 391.257 413.389 399.713 C 406.431 406.251 399.384 418.663 393.108 425.094 C 387.664 430.671 374.132 438.725 368.031 445.168 C 359.383 454.302 350.221 467.403 341.672 476.231 C 335.733 482.363 321.136 491.316 314.758 498.313 C 307.515 506.259 297.586 520.513 290.24 527.724 C 284.944 532.923 267.643 544.862 262.398 550.624 C 256.765 556.812 246.296 572.279 239.666 578.062 C 229.923 586.558 219.135 595.27 209.237 603.765 C 204.343 607.965 194.452 624.336 190.718 627.422 C 179.463 636.724 168.326 646.299 157.287 656.08 C 152.024 660.743 141.811 676.836 137.851 680.164 C 128.261 688.225 116.348 697.695 106.861 706.357 C 99.1856 714.16 93.3822 723.667 86.5826 732.198 C 85.0103 734.17 75.5849 738.626 74.7536 739.899 C 66.8466 752.007 61.5043 757.229 49.3738 764.784 C 46.8767 766.339 40.2132 778.373 37.384 780.905 C 25.8683 790.035 17.5666 798.907 7.87118 810.027 C 7.28992 809.772 6.86247 809.589 6.22357 809.557 C -0.549479 827.074 6.22562 852.621 0 870.495 L 0 0 z"/>
<path transform="translate(0,0)" fill="rgb(23,194,52)" d="M 1542.68 1152 L 1543.18 1150.16 C 1547.92 1147.73 1768.06 1148.96 1791.73 1148.82 C 1805.04 1148.74 1838.41 1149.58 1853.16 1147.64 C 1855.66 1147.31 1857.27 1143.02 1858.3 1140.73 C 1862.84 1137.8 1861.33 1139.64 1867.01 1138.77 C 1873.38 1137.8 1872.13 1128.56 1875.02 1124.63 C 1877.97 1120.62 1884.76 1114.39 1888.61 1110.89 C 1891.11 1110.48 1893.21 1110.13 1894.88 1109.85 C 1898.01 1106.84 1895.25 1103.13 1896.99 1101.87 C 1904.58 1096.32 1905.07 1097.13 1910 1088.92 C 1911.19 1088.97 1918.6 1092.69 1920.65 1093.59 C 1928.18 1089.7 1928.47 1074.08 1930.68 1068.15 C 1932.02 1064.54 1944.12 1059.81 1947.77 1056.06 C 1948.13 1052.8 1948.03 1050.46 1950.22 1047.97 C 1959.26 1045.76 1956.84 1040.17 1963.27 1037.23 C 1965.87 1038.55 1966.57 1038.87 1969.39 1039.59 C 1971.46 1036.38 1970.7 1033.8 1970.73 1029.37 C 1972.26 1026.16 1987.68 1011.86 1990.99 1009.03 C 1995.79 1008.21 2008.08 1018.15 2009.89 1004.64 C 2006.11 1000.28 2005 1003.17 2000.36 999.299 C 2001.31 994.893 2005.17 998.053 2011.49 989.413 C 2018.07 980.426 2032.33 967.934 2039.68 958.21 C 2041.58 957.941 2043.17 957.717 2044.46 957.536 C 2045.26 953.674 2044.69 942.133 2044.68 937.226 L 2044.62 886.641 L 2044.8 710.934 C 2044.75 683.926 2043.85 658.236 2045.9 631.279 C 2046.82 619.136 2045.87 606.982 2047.87 594.279 L 2048 593.459 L 2048 1152 L 1542.68 1152 z"/>
<path transform="translate(0,0)" fill="rgb(254,254,254)" d="M 1010.65 346.442 C 1073.71 342.512 1167.51 360.072 1214.83 402.817 C 1279.65 461.377 1216.07 521.015 1155.69 541.725 C 1113.21 556.299 1082.86 561.791 1037.81 563.55 C 969.691 565.331 889.812 553.654 835.265 509.55 C 803.803 484.111 794.519 442.303 824.607 410.997 C 871.203 362.512 946.508 350.014 1010.65 346.442 z"/>
<path transform="translate(0,0)" fill="rgb(254,254,254)" d="M 1240.69 516.083 C 1243.1 526.726 1242.16 572.923 1240.76 584.478 C 1235.36 629.063 1173.6 658.68 1136.24 669.214 C 1049.56 693.654 945.69 691.036 864.472 650.048 C 838.893 637.14 815.963 617.048 807.614 589.249 C 805.217 581.433 806.512 527.416 806.634 515.152 C 822.206 560.905 860.646 577.722 903.592 594.285 C 988.942 627.2 1206.54 620.777 1240.69 516.083 z"/>
<path transform="translate(0,0)" fill="rgb(254,254,254)" d="M 1240.66 636.723 C 1243.07 646.878 1242.1 692.481 1241.02 704.003 C 1236.86 748.507 1175.31 778.775 1138.52 789.414 C 1051.47 814.585 947.085 812.212 865.288 771.37 C 839.376 758.432 816.217 738.267 807.614 710.258 C 805.246 701.73 806.539 649.051 806.674 636.291 C 822.764 683.123 863.025 699.909 907.05 716.307 C 992.074 747.975 1208.06 740.45 1240.66 636.723 z"/>
</svg>