<svg xmlns="http://www.w3.org/2000/svg" viewBox="0 0 600 360" role="img" aria-labelledby="titleOrange"><title id="titleOrange">Orange project thumbnail</title><defs><linearGradient id="gradOrange" x1="0" x2="1" y1="0" y2="1"><stop offset="0%" stop-color="#f97316"/><stop offset="100%" stop-color="#ea580c"/></linearGradient></defs><rect width="600" height="360" rx="30" fill="url(#gradOrange)"/><circle cx="300" cy="180" r="62" fill="rgba(255,255,255,0.88)"/><path d="M280 162h40a10 10 0 0 1 10 10v16a10 10 0 0 1-10 10h-24v18a10 10 0 0 1-10 10h-12a10 10 0 0 1-10-10v-36a10 10 0 0 1 10-10h6v-8a10 10 0 0 1 10-10zm-2 18v16h22v-16h-22z" fill="#f97316"/></svg>