<svg version="1.1" xmlns="http://www.w3.org/2000/svg" style="display: block;" viewBox="0 0 2048 1152" width="1280" height="720" preserveAspectRatio="none">
<defs>
	<linearGradient id="Gradient1" gradientUnits="userSpaceOnUse" x1="508.928" y1="507.929" x2="48.5822" y2="47.4002">
		<stop class="stop0" offset="0" stop-opacity="1" stop-color="rgb(255,130,73)"/>
		<stop class="stop1" offset="1" stop-opacity="1" stop-color="rgb(255,199,165)"/>
	</linearGradient>
	<linearGradient id="Gradient2" gradientUnits="userSpaceOnUse" x1="1899.71" y1="1318.22" x2="644.254" y2="254.032">
		<stop class="stop0" offset="0" stop-opacity="1" stop-color="rgb(255,53,0)"/>
		<stop class="stop1" offset="1" stop-opacity="1" stop-color="rgb(255,116,51)"/>
	</linearGradient>
</defs>
<path transform="translate(0,0)" fill="url(#Gradient2)" d="M 0 0 L 81.3902 0 L 1397.63 0 L 2048 0 L 2048 1152 L 135.387 1152 L 0 1152 L 0 69.7321 L 0 0 z"/>
<path transform="translate(0,0)" fill="url(#Gradient1)" d="M 0 0 L 81.3902 0 L 1397.63 0 C 1392.57 4.30078 1372.88 2.55696 1365.33 2.66466 C 1340.48 3.12244 1315.62 3.24971 1290.77 3.04642 L 1082.14 3.04512 C 1066.48 3.04622 1029.41 2.11582 1014.07 3.94178 C 1010.32 4.38746 984.723 28.9646 980.76 33.5134 C 978.656 35.9289 971.09 41.0439 968.14 44.0837 C 963.814 48.5409 958.862 56.7096 954.532 60.849 C 946.584 68.4468 937.858 75.6599 930.826 84.3322 C 927.305 88.6751 918.667 91.4266 916.449 94.0476 C 911.973 99.457 909.187 106.892 904.369 111.985 C 899.956 116.649 891.547 121.332 887.098 125.962 C 876.729 136.753 875.826 147.713 861.04 152.901 C 855.876 159.533 844.664 169.001 839.419 174.888 C 832.592 182.549 825.276 192.656 816.001 195.735 C 803.3 199.951 807.467 208.258 804.216 210.843 C 793.005 219.757 785.237 227.246 776.486 238.946 C 774.74 241.254 764.335 245.447 761.959 248.346 C 758.448 251.57 755.357 258.203 751.988 261.435 C 739.689 273.235 729.923 288.662 714.552 296.152 C 712.142 297.327 702.409 311.2 699.373 314.05 C 691.266 323.348 682.231 331.882 673.974 341.044 C 671.164 344.162 661.322 348.281 659.36 351.104 C 649.031 366.132 635.668 378.296 623.27 391.48 C 620.04 394.914 606.132 403.11 604.832 405.57 C 596.503 421.324 582.081 430.682 570.556 444.22 C 567.95 447.282 558.991 450.66 556.096 454.432 C 551.678 459.451 549.394 469.452 543.58 472.302 C 533.88 477.056 526.537 489.039 518.902 496.613 C 517.065 498.779 509.05 500.628 507.696 502.219 C 504.012 506.55 500.816 515.596 496.406 519.363 C 486.615 527.728 477.773 536.622 468.641 545.65 C 464.69 549.557 458.879 552.027 454.715 555.702 C 451.859 558.553 450.084 565.537 447.434 568.292 C 442.425 573.501 436.985 577.707 431.518 582.706 C 425.284 588.407 417.993 599.179 410.396 602.389 C 400.734 606.471 400.105 614.648 393.317 621.606 C 384.039 629.057 368.242 648.822 359.453 653.692 C 350.041 657.416 347.91 667.022 341.044 674.074 C 336.849 678.384 330.68 683.179 326.675 687.697 C 318.48 696.943 313.282 702.572 302.305 708.126 C 300.611 708.984 293.29 723.416 290.479 725.238 C 281.512 732.716 272.974 741.265 264.817 749.588 C 262.536 751.897 247.655 763.229 246.929 764.905 C 240.42 779.912 231.313 781.098 221.419 792.472 C 214.43 800.505 212.264 806.796 202.15 806.938 C 201.577 806.946 194.036 821.502 192.191 822.991 C 181.339 832.979 170.987 843.169 160.693 853.722 C 155.945 858.194 150.17 862.049 145.555 866.617 C 142.437 869.704 139.913 875.248 136.573 878.509 C 127.231 887.631 117.755 896.355 108.909 906.011 C 105.512 909.719 98.4864 912.48 94.8742 916.402 C 91.4169 919.531 89.6523 926.964 86.5383 930.013 C 83.2075 933.274 76.2964 936.543 73.1439 940.184 C 64.3191 950.295 60.0306 957.409 47.5971 963.567 C 46.6121 964.055 37.1589 978.103 34.896 980.79 C 28.9796 987.816 3.32971 1007.1 3.12509 1015.41 C 2.74989 1030.65 3.38132 1045.91 3.29427 1061.16 C 3.96873 1088.79 1.98753 1121.36 3.3371 1148.55 C 16.4151 1149.9 138.95 1147.56 141.374 1148.99 C 139.974 1151.39 138.25 1151.72 135.387 1152 L 0 1152 L 0 69.7321 L 0 0 z"/>
<path transform="translate(0,0)" fill="rgb(254,201,168)" d="M 0 0 L 81.3902 0 L 81.5132 2.35859 C 84.9299 3.52835 87.8917 3.26038 91.4988 3.22291 L 92.0756 4.47039 C 79.5296 24.6783 54.8753 40.8232 39.0365 58.2935 C 27.4865 71.0332 13.443 83.4328 4.06074 97.5608 L 3.35592 97.4026 C 2.55927 87.3858 5.30332 75.6044 0 69.7321 L 0 0 z"/>
<path transform="translate(0,0)" fill="rgb(254,255,254)" d="M 1010.7 346.446 C 1076.83 344.209 1162.28 357.862 1212.44 400.551 C 1280.12 461.597 1218.48 519.505 1155.08 541.933 C 1112.99 556.825 1082.55 561.311 1038.62 563.687 C 970.801 565.044 884.747 553.498 833.757 508.309 C 765.593 447.899 834.844 386.711 895.979 366.964 C 938.767 353.143 967.318 348.626 1010.7 346.446 z"/>
<path transform="translate(0,0)" fill="rgb(254,255,254)" d="M 1240.48 515.691 C 1243.18 526.029 1241.93 570.336 1241.09 582.519 C 1238.16 624.783 1180.11 655.407 1145.1 666.397 C 1058.09 693.709 952.872 692.05 869.79 652.922 C 842.014 639.84 817.328 619.37 807.563 589.84 C 805.045 579.399 806.3 528.992 806.449 514.764 C 808.509 520.642 810.964 527.203 813.983 532.628 C 833.115 567.006 881.068 588.568 917.623 598.51 C 1000.98 621.182 1111.14 617.452 1187.53 575.351 C 1211.77 561.991 1232.96 542.92 1240.48 515.691 z"/>
<path transform="translate(0,0)" fill="rgb(254,255,254)" d="M 1240.47 636.688 C 1242.48 644.325 1242.32 694.641 1241.07 703.544 C 1240.14 710.604 1238.08 717.47 1234.98 723.88 C 1219.71 755.148 1176.3 777.228 1144.37 787.523 C 1060.42 814.596 949.745 812.559 869.806 773.795 C 841.619 760.126 817.532 740.754 807.535 710.52 C 805.035 699.766 806.329 649.301 806.496 636.022 C 808.401 641.256 811.042 648.17 813.711 653.063 C 832.305 687.148 879.584 708.842 915.616 718.863 C 999.1 742.08 1109.16 738.585 1185.98 697.102 C 1211.02 683.581 1232.52 664.593 1240.47 636.688 z"/>
</svg>