<svg version="1.1" xmlns="http://www.w3.org/2000/svg" style="display: block;" viewBox="0 0 2048 1152" width="1280" height="720" preserveAspectRatio="none">
<defs>
	<linearGradient id="Gradient1" gradientUnits="userSpaceOnUse" x1="58.1251" y1="-52.1049" x2="753.472" y2="643.497">
		<stop class="stop0" offset="0" stop-opacity="1" stop-color="rgb(216,154,230)"/>
		<stop class="stop1" offset="1" stop-opacity="1" stop-color="rgb(239,18,251)"/>
	</linearGradient>
	<linearGradient id="Gradient2" gradientUnits="userSpaceOnUse" x1="1970.15" y1="1221.93" x2="1239.57" y2="492.166">
		<stop class="stop0" offset="0" stop-opacity="1" stop-color="rgb(143,28,143)"/>
		<stop class="stop1" offset="1" stop-opacity="1" stop-color="rgb(234,0,245)"/>
	</linearGradient>
</defs>
<path transform="translate(0,0)" fill="url(#Gradient2)" d="M 0 0 L 1481.48 0 L 1651.29 0 L 2048 0 L 2048 1152 L 436.289 1152 L 350.458 1152 L 0 1152 L 0 0 z"/>
<path transform="translate(0,0)" fill="url(#Gradient1)" d="M 0 0 L 1481.48 0 C 1484.89 2.71581 1495.41 1.32808 1501.77 2.63827 C 1473.29 3.12708 1444.81 3.22988 1416.34 2.94665 C 1409.4 2.91995 1374.75 2.22486 1370.12 3.65328 C 1370.89 7.77773 1370.83 8.05355 1368.48 11.4663 C 1364.46 17.2984 1358.01 20.8947 1353.03 25.8249 C 1347.88 30.9221 1343.6 36.8241 1338.49 41.9345 C 1329.04 51.3639 1291.01 86.0241 1286.97 95.4267 C 1283.03 104.555 1270.9 106.105 1264.54 113.17 C 1256.66 121.917 1248.32 130.951 1240.84 139.989 C 1237.84 143.617 1235.4 148.051 1232 151.298 C 1225.68 157.332 1216.59 160.61 1210.43 166.957 C 1203.05 174.549 1196.79 183.337 1189.42 191.044 C 1174.47 206.68 1158.33 221.254 1142.97 236.471 C 1132.88 246.476 1123.42 257.31 1113.47 267.496 C 1101.72 279.529 1089.01 291.216 1076.78 302.789 C 1071.17 308.1 1066.96 314.792 1061.49 320.206 C 1058.02 323.63 1052.81 325.545 1049.59 329.054 C 1046.76 332.123 1050.41 335.114 1045.17 337.108 C 1041.66 338.442 1036.57 339.047 1034.43 342.35 L 1034.43 344.311 C 1048.97 344.695 1072.06 346.184 1086.23 348.886 L 1086.96 350.707 C 1067.82 348.732 1046.1 346.246 1026.6 346.261 C 962.04 346.706 890.593 357.994 838.205 398.231 C 822.545 410.259 808.371 429.009 806.453 448.551 C 803.184 481.856 826.608 506.035 852.701 522.06 C 853.929 522.814 861.508 527.708 862.087 528.373 C 853.789 529.302 853.336 519.803 846.837 525.486 C 844.881 532.662 842.721 540.189 839.997 547.126 C 838.937 549.825 837.308 548.767 836.203 551.797 C 843.119 562.5 850.305 566.936 860.784 573.673 C 860.858 574.237 860.932 574.8 861.006 575.364 C 841.296 566.985 818.32 544.802 810.116 524.537 C 808.816 521.307 807.619 518.036 806.526 514.73 C 806.381 534.972 804.384 578.312 809.368 595.942 C 805.297 594.119 805.296 591.678 804.485 587.456 C 799.366 582.214 788.888 590.288 784.308 594.096 C 779.785 597.857 776.493 608.359 771.417 612.296 C 759.157 622.403 746.407 631.733 735.187 643.157 C 729.639 648.804 725.943 658.319 720.068 664.347 C 715.685 668.844 707.757 672.261 703.817 675.7 C 695.664 682.816 686.912 692.617 679.015 700.164 C 674.76 703.012 673.978 711.409 670.814 714.317 C 664.3 720.305 656.003 723.601 649.369 729.596 C 636.59 741.144 627.033 753.016 617.337 767.032 C 615.104 770.26 603.782 775.603 600.751 778.605 C 591.334 787.617 581.251 797.876 572.377 807.372 C 569.74 807.336 567.71 807.235 565.073 807.599 C 565.953 808.856 566.011 808.766 567.355 809.553 C 566.867 811.854 565.969 818.444 563.967 819.459 C 549.849 826.615 540.627 837.649 530.683 848.932 C 523.361 857.24 520.007 859.885 514.212 869.797 C 505.362 877.312 495.675 882.401 487.474 890.881 C 477.255 898.737 471.961 910.91 463.528 920.008 C 457.092 926.952 441.372 934.771 435.366 942.697 C 433.595 945.034 421.708 957.554 421.664 957.633 C 415.086 969.305 410.629 974.655 398.892 981.629 C 392.299 985.653 386.336 993.225 380.436 997.645 C 374.192 1002.05 367.608 1016.92 362.554 1021.07 C 349.57 1031.47 334.013 1043.58 322.928 1056.08 C 312.107 1068.28 314.043 1075.23 295.709 1083.57 C 295.273 1083.77 274.544 1105.71 271.167 1108.1 C 268.417 1110.06 261.377 1125 256.367 1127.14 C 253.054 1129.81 246.963 1133.2 244.291 1135.55 C 242.549 1137.09 229.66 1147.31 229.484 1147.78 C 233.854 1151.03 325.133 1147.51 336.847 1148.73 C 341.786 1149.25 347.116 1147.03 350.458 1152 L 0 1152 L 0 0 z"/>
<path transform="translate(0,0)" fill="rgb(239,5,251)" d="M 1481.48 0 L 1651.29 0 C 1631.82 2.88856 1600.19 0.337179 1579.47 1.04321 C 1568.86 1.40468 1556.76 2.46948 1546.59 2.00854 L 1546.15 2.74713 C 1550.84 4.66068 1732.56 2.37195 1750.69 3.6761 C 1747.35 6.72726 1739.86 9.90641 1738.75 11.4106 C 1732.98 19.2399 1720.95 24.8845 1715.14 28.1331 C 1712.21 32.8063 1709.71 39.1291 1704.42 41.8398 C 1698.91 44.6687 1679.47 71.741 1676.46 73.0297 C 1657.2 81.2728 1653.98 95.9764 1639.49 109.536 C 1639.5 106.406 1639.88 102.204 1638.7 99.4932 C 1636.21 105.779 1638.86 126.212 1636.2 129.387 C 1625.56 126.242 1627.18 125.394 1618.26 132.332 C 1614.28 130.872 1613.17 125.619 1612.14 121.883 C 1611.61 124.763 1611.2 132.406 1610.43 133.962 C 1604.86 145.259 1583.92 160.57 1581.66 171.56 C 1574.07 177.6 1560.23 178.307 1558.07 187.945 C 1557.24 191.618 1551.53 194.715 1547.72 198.777 C 1540.58 206.381 1534.23 215.3 1527.54 222.706 C 1524.93 225.602 1514.36 229.985 1510.39 234.401 C 1498.05 248.103 1486.36 262.395 1474.02 276.081 C 1471.29 279.118 1461.63 282.215 1458.75 285.604 C 1448.14 298.099 1437.41 310.503 1427.15 323.261 C 1424.35 326.731 1409.27 334.269 1406.96 337.223 C 1397.51 349.334 1387.06 360.186 1377.63 372.334 C 1374.65 376.169 1361.04 383.727 1356.18 388.916 C 1343.78 402.165 1332.95 415.94 1320.04 428.813 C 1314.88 433.965 1305.63 436.776 1304.38 438.619 C 1299.73 445.733 1294.86 452.593 1289.08 458.783 C 1286.37 461.681 1277.26 466.396 1276.05 468.425 C 1268.44 481.143 1263.19 489.671 1249.28 496.417 C 1247.07 497.485 1245.12 518.34 1243.51 519.537 C 1243.26 516.081 1243.35 511.878 1241.56 509.029 L 1239.78 509.349 C 1238.02 512.675 1238.46 511.231 1238.78 515.604 L 1240.1 516.465 C 1243.12 520.764 1241.04 548.152 1241.65 554.951 C 1245.07 592.491 1232.84 617.893 1201.39 639.132 C 1149.42 674.226 1085.18 683.438 1023.43 685.098 C 952.912 682.612 843.094 667.777 809.368 595.942 C 804.384 578.312 806.381 534.972 806.526 514.73 C 807.619 518.036 808.816 521.307 810.116 524.537 C 818.32 544.802 841.296 566.985 861.006 575.364 C 860.932 574.8 860.858 574.237 860.784 573.673 C 850.305 566.936 843.119 562.5 836.203 551.797 C 837.308 548.767 838.937 549.825 839.997 547.126 C 842.721 540.189 844.881 532.662 846.837 525.486 C 853.336 519.803 853.789 529.302 862.087 528.373 C 861.508 527.708 853.929 522.814 852.701 522.06 C 826.608 506.035 803.184 481.856 806.453 448.551 C 808.371 429.009 822.545 410.259 838.205 398.231 C 890.593 357.994 962.04 346.706 1026.6 346.261 C 1046.1 346.246 1067.82 348.732 1086.96 350.707 L 1086.23 348.886 C 1072.06 346.184 1048.97 344.695 1034.43 344.311 L 1034.43 342.35 C 1036.57 339.047 1041.66 338.442 1045.17 337.108 C 1050.41 335.114 1046.76 332.123 1049.59 329.054 C 1052.81 325.545 1058.02 323.63 1061.49 320.206 C 1066.96 314.792 1071.17 308.1 1076.78 302.789 C 1089.01 291.216 1101.72 279.529 1113.47 267.496 C 1123.42 257.31 1132.88 246.476 1142.97 236.471 C 1158.33 221.254 1174.47 206.68 1189.42 191.044 C 1196.79 183.337 1203.05 174.549 1210.43 166.957 C 1216.59 160.61 1225.68 157.332 1232 151.298 C 1235.4 148.051 1237.84 143.617 1240.84 139.989 C 1248.32 130.951 1256.66 121.917 1264.54 113.17 C 1270.9 106.105 1283.03 104.555 1286.97 95.4267 C 1291.01 86.0241 1329.04 51.3639 1338.49 41.9345 C 1343.6 36.8241 1347.88 30.9221 1353.03 25.8249 C 1358.01 20.8947 1364.46 17.2984 1368.48 11.4663 C 1370.83 8.05355 1370.89 7.77773 1370.12 3.65328 C 1374.75 2.22486 1409.4 2.91995 1416.34 2.94665 C 1444.81 3.22988 1473.29 3.12708 1501.77 2.63827 C 1495.41 1.32808 1484.89 2.71581 1481.48 0 z"/>
<path transform="translate(0,0)" fill="rgb(254,254,254)" d="M 862.087 528.373 C 861.508 527.708 853.929 522.814 852.701 522.06 C 826.608 506.035 803.184 481.856 806.453 448.551 C 808.371 429.009 822.545 410.259 838.205 398.231 C 890.593 357.994 962.04 346.706 1026.6 346.261 C 1046.1 346.246 1067.82 348.732 1086.96 350.707 C 1137.97 359.957 1198.57 376.281 1230.44 420.5 C 1257.03 457.393 1232.92 498.471 1199.25 519.658 C 1125.86 565.841 1027.91 571.496 944.135 556.37 C 914.045 550.664 889.034 541.617 862.087 528.373 z"/>
<path transform="translate(0,0)" fill="rgb(254,254,254)" d="M 1240.1 516.465 C 1243.12 520.764 1241.04 548.152 1241.65 554.951 C 1245.07 592.491 1232.84 617.893 1201.39 639.132 C 1149.42 674.226 1085.18 683.438 1023.43 685.098 C 952.912 682.612 843.094 667.777 809.368 595.942 C 804.384 578.312 806.381 534.972 806.526 514.73 C 807.619 518.036 808.816 521.307 810.116 524.537 C 818.32 544.802 841.296 566.985 861.006 575.364 C 875.106 585.282 909.032 596.644 926.087 600.745 C 1009.72 620.857 1116.68 616.476 1191.85 572.856 C 1213.37 560.372 1233.99 541.128 1240.1 516.465 z"/>
<path transform="translate(0,0)" fill="rgb(239,5,251)" d="M 350.458 1152 C 347.116 1147.03 341.786 1149.25 336.847 1148.73 C 325.133 1147.51 233.854 1151.03 229.484 1147.78 C 229.66 1147.31 242.549 1137.09 244.291 1135.55 C 246.963 1133.2 253.054 1129.81 256.367 1127.14 C 261.377 1125 268.417 1110.06 271.167 1108.1 C 274.544 1105.71 295.273 1083.77 295.709 1083.57 C 314.043 1075.23 312.107 1068.28 322.928 1056.08 C 334.013 1043.58 349.57 1031.47 362.554 1021.07 C 367.608 1016.92 374.192 1002.05 380.436 997.645 C 386.336 993.225 392.299 985.653 398.892 981.629 C 410.629 974.655 415.086 969.305 421.664 957.633 C 421.708 957.554 433.595 945.034 435.366 942.697 C 441.372 934.771 457.092 926.952 463.528 920.008 C 471.961 910.91 477.255 898.737 487.474 890.881 C 495.675 882.401 505.362 877.312 514.212 869.797 C 520.007 859.885 523.361 857.24 530.683 848.932 C 540.627 837.649 549.849 826.615 563.967 819.459 C 565.969 818.444 566.867 811.854 567.355 809.553 C 566.011 808.766 565.953 808.856 565.073 807.599 C 567.71 807.235 569.74 807.336 572.377 807.372 C 581.251 797.876 591.334 787.617 600.751 778.605 C 603.782 775.603 615.104 770.26 617.337 767.032 C 627.033 753.016 636.59 741.144 649.369 729.596 C 656.003 723.601 664.3 720.305 670.814 714.317 C 673.978 711.409 674.76 703.012 679.015 700.164 C 686.912 692.617 695.664 682.816 703.817 675.7 C 707.757 672.261 715.685 668.844 720.068 664.347 C 725.943 658.319 729.639 648.804 735.187 643.157 C 746.407 631.733 759.157 622.403 771.417 612.296 C 776.493 608.359 779.785 597.857 784.308 594.096 C 788.888 590.288 799.366 582.214 804.485 587.456 C 805.296 591.678 805.297 594.119 809.368 595.942 C 843.094 667.777 952.912 682.612 1023.43 685.098 C 1038.42 688.555 1060.74 682.369 1071.77 684.853 C 1067.55 685.538 1065.93 687.185 1062.56 689.595 C 1062.95 689.314 1055.7 689.519 1055.4 689.545 L 1054.86 691.214 C 1056.32 692.178 1056.71 692.484 1058.35 693.195 C 1047.97 700.672 1037.44 706.296 1029.85 716.529 C 1029.38 717.155 1022.85 718.624 1021.97 719.5 C 1013.33 725.001 1015.73 728.026 1005.13 727.395 L 1004.96 728.559 C 1008.28 730.27 1013.52 730.448 1017.39 730.83 C 1011.29 731.043 1004.09 731.412 998.067 730.98 C 990.719 730.454 980.021 728.287 972.96 728.525 C 972.335 729.495 972.468 728.986 972.468 730.026 C 921.581 723.798 855.226 706.212 821.047 664.115 C 813.766 655.148 810.454 646.604 806.514 635.951 C 806.215 673.64 798.654 716.568 827.912 744.601 C 851.955 767.638 877.823 778.678 908.666 789.425 L 906.838 790.627 C 908.321 792.1 940.208 799.859 943.995 799.865 C 944.505 799.863 945.015 799.851 945.525 799.827 C 942.294 802.116 940.742 803.05 938.216 806.135 C 937.617 810.228 938.966 811.867 936.757 813.255 C 931.449 816.591 922.829 821.8 919.263 826.924 C 919.97 828.587 919.86 828.53 921.226 829.691 C 917.43 833.116 912.437 837.429 908.2 839.985 C 891.934 849.743 881.735 866.611 868.633 879.925 C 863.606 885.033 861.039 893.438 853.292 894.991 C 843.444 896.965 839.44 907.412 832.085 914.63 L 831.877 918.738 L 829.151 918.163 C 828.197 920.755 828.897 922.255 829.567 924.986 C 828.397 927.59 829.198 926.723 826.399 928.041 C 822.82 927.088 823.869 926.793 821.094 928.004 C 816.182 933.387 815.917 938.978 811.213 942.494 C 810.259 940.757 810.317 940.679 809.941 938.824 L 808.663 939.45 L 807.546 938.947 L 807.576 938.141 C 807.648 935.78 807.848 935.068 806.984 932.967 L 805.694 933.308 C 802.265 947.292 809.647 942.134 792.391 950.59 C 791.675 950.941 789.19 957.481 788.183 958.492 C 778.218 969.659 767.588 979.734 758.518 991.706 C 755.627 995.523 745.934 998.517 742.3 1001.96 C 731.065 1015.59 719.377 1028.67 708.258 1042.41 C 705.048 1046.37 693.643 1050 690.996 1053.34 C 679.454 1068.07 666.716 1081.45 654.451 1095.56 C 650.554 1102.18 638.014 1100.45 636.362 1108.22 C 634.998 1114.63 632.746 1113.04 629.968 1117.32 C 623.791 1126.84 605.842 1132.74 611.046 1144.25 C 598.896 1150.47 560.141 1148.99 545.859 1148.99 L 463.17 1148.97 C 447.364 1148.98 428.555 1148.55 412.987 1149.56 C 415.778 1151.59 432.007 1151.09 436.289 1152 L 350.458 1152 z"/>
<path transform="translate(0,0)" fill="rgb(254,254,254)" d="M 1240.8 635.337 C 1241.83 648.176 1241.63 659.733 1241.78 672.388 C 1242.1 699.328 1243.29 718.122 1224.19 739.727 C 1185.85 783.101 1111.98 800.171 1057.28 804.346 C 1007.25 808.471 956.882 803.414 908.666 789.425 C 877.823 778.678 851.955 767.638 827.912 744.601 C 798.654 716.568 806.215 673.64 806.514 635.951 C 810.454 646.604 813.766 655.148 821.047 664.115 C 855.226 706.212 921.581 723.798 972.468 730.026 C 1047.29 738.895 1145.77 729.671 1207.8 682.804 C 1223.94 670.611 1235.64 655.142 1240.8 635.337 z"/>
</svg>