<svg version="1.1" xmlns="http://www.w3.org/2000/svg" style="display: block;" viewBox="0 0 2048 1152" width="1280" height="720" preserveAspectRatio="none">
<defs>
	<linearGradient id="Gradient1" gradientUnits="userSpaceOnUse" x1="205.715" y1="206.721" x2="2.84745" y2="3.15202">
		<stop class="stop0" offset="0" stop-opacity="1" stop-color="rgb(238,121,121)"/>
		<stop class="stop1" offset="1" stop-opacity="1" stop-color="rgb(231,163,162)"/>
	</linearGradient>
	<linearGradient id="Gradient2" gradientUnits="userSpaceOnUse" x1="497.023" y1="499.023" x2="203.006" y2="204.979">
		<stop class="stop0" offset="0" stop-opacity="1" stop-color="rgb(247,62,61)"/>
		<stop class="stop1" offset="1" stop-opacity="1" stop-color="rgb(238,122,121)"/>
	</linearGradient>
	<linearGradient id="Gradient3" gradientUnits="userSpaceOnUse" x1="1922.59" y1="1298.9" x2="607.634" y2="240.896">
		<stop class="stop0" offset="0" stop-opacity="1" stop-color="rgb(200,1,0)"/>
		<stop class="stop1" offset="1" stop-opacity="1" stop-color="rgb(255,32,31)"/>
	</linearGradient>
</defs>
<path transform="translate(0,0)" fill="url(#Gradient3)" d="M 0 0 L 402.75 0 L 1375.91 0 L 2048 0 L 2048 1152 L 135.076 1152 L 0 1152 L 0 399.547 L 0 0 z"/>
<path transform="translate(0,0)" fill="url(#Gradient2)" d="M 0 0 L 402.75 0 L 1375.91 0 L 1378.48 1.40889 L 1378.27 2.53721 C 1368.73 4.11992 1356.24 2.81168 1345.76 2.86811 L 1267.07 3.26406 L 989.788 3 C 989.066 3.70329 977.069 16.2759 977.523 16.1149 C 964.928 20.399 963.726 32.3443 955.406 41.0509 C 951.638 44.9929 946.027 48.418 942.263 52.4392 C 932.711 62.6466 924.903 71.7091 912.844 79.0706 C 910.401 80.5622 905.01 91.591 901.925 93.7791 C 893.145 98.8385 882.781 115.252 875.222 119.635 C 865.068 125.525 864.733 119.81 857.622 137.002 C 857.249 137.903 842.434 148.367 840.82 150.474 C 837.3 154.267 833.002 162.984 829.667 167.805 C 824.473 175.313 814.096 172.005 812.39 179.758 C 808.864 191.823 792.301 197.81 785.266 207.903 C 782.375 212.05 773.326 222.07 769.41 224.327 C 759.299 230.155 758.606 232.424 753.055 242.027 C 751.824 244.158 741.159 250.074 739.029 252.501 C 734.529 257.917 731.858 263.448 727.071 268.791 C 724.65 271.493 709.293 281.16 708.662 282.489 C 703.165 294.061 696.095 297.622 686.837 305.821 C 681.121 311.721 676.893 318.918 671.132 324.754 C 668.364 327.559 662.336 328.953 659.365 332.186 C 650.931 341.361 647.645 350.612 635.809 356.087 C 634.344 356.765 626.091 370.009 623.57 371.904 C 621.005 374.888 607.542 382.945 606.624 384.688 C 600.182 396.92 590.649 402.538 580.72 411.729 C 576.999 415.174 573.701 422.213 569.877 425.912 C 566.65 429.172 558.099 433.701 555.226 436.562 C 550.232 441.535 544.987 449.454 540.171 454.7 C 536.744 458.365 529.496 459.767 527.99 464.752 C 527.378 466.78 525.829 470.088 524.31 471.476 C 513.729 481.171 502.069 487.726 493.853 499.884 C 491.484 503.39 484.218 508.37 481.328 511.765 C 472.216 522.469 465.116 531.355 453.048 538.998 C 450.82 540.409 445.988 548.208 443.452 550.246 C 433.809 559.291 424.987 568.817 416.475 578.931 C 413.236 582.78 404.528 586.139 401.867 589.873 C 394.904 599.643 386.709 606.869 378.295 615.277 C 373.58 620.229 369.521 625.702 364.718 630.571 C 361.251 634.086 354.886 636.573 351.377 640.178 C 345.251 646.48 340.159 657.613 331.916 661.222 C 324.651 664.403 320.469 676.296 315.124 680.744 C 304.87 689.275 298.882 687.855 293.266 701.524 C 292.596 703.155 275.596 715.952 273.737 718.272 C 271.034 721.053 269.058 727.213 266.346 729.606 C 255.162 739.471 246.184 741.703 239.676 756.276 C 241.002 753.308 214.593 776.051 214.835 780.46 C 214.908 781.79 200.919 791.328 199.678 792.425 C 197.009 794.636 191.275 802.373 188.152 805.576 C 180.977 813.009 173.173 820.238 167.13 828.668 C 161.929 835.922 144.79 842.665 142.032 850.026 C 137.948 860.927 131.773 859.522 125.689 866.655 C 112.218 882.449 97.2188 896.5 83.3544 911.906 C 79.2116 915.552 73.7511 918.021 69.7368 921.785 C 66.4678 924.85 63.2431 932.544 59.9895 935.177 C 50.2366 943.067 42.3566 952.13 33.6705 961.075 C 30.2437 964.605 24.9481 967.104 21.5228 970.679 C 18.6299 974.679 4.67934 991.198 4.34334 995.104 C 2.14446 1020.66 3.43991 1049.38 3.31153 1075.44 C 3.19469 1099.16 3.08232 1123.6 3.39586 1147.32 C 3.40247 1147.82 3.88742 1148.39 4.20559 1148.81 C 48.9505 1150.77 100.358 1147.4 146.322 1149.14 C 143.377 1149.82 136.799 1150.65 135.076 1152 L 0 1152 L 0 399.547 L 0 0 z"/>
<path transform="translate(0,0)" fill="url(#Gradient1)" d="M 0 0 L 402.75 0 L 402.687 2.47666 L 405.673 4.09559 L 235.21 176.036 C 217.378 193.805 195.193 208.707 182.036 231.366 C 182.797 230.056 165.586 242.824 163.318 245.023 C 155.965 252.157 148.991 259.67 142.423 267.531 C 140.148 270.282 131.686 281.423 130.011 282.847 C 123.124 288.592 115.604 292.829 109.059 299.119 C 97.961 309.674 88.8368 321.758 79.3952 333.736 C 77.4308 336.229 71.883 338.781 69.1587 340.801 C 53.2864 352.571 40.9507 369.568 27.5742 384.006 C 22.6253 389.348 5.69933 402.704 3.80282 407.717 C 0.232548 403.735 4.63278 405.381 0 399.547 L 0 0 z"/>
<path transform="translate(0,0)" fill="rgb(254,254,254)" d="M 1010.94 346.441 C 1077.21 344.084 1163.81 358.252 1213.57 401.585 C 1280.24 463.226 1216.18 520.842 1153.62 542.482 C 1111.53 557.043 1081.84 561.263 1038 563.704 C 970.189 564.758 885.59 553.649 834.24 508.724 C 765.763 448.814 833.775 387.316 894.989 367.33 C 938.056 353.27 967.095 348.576 1010.94 346.441 z"/>
<path transform="translate(0,0)" fill="rgb(254,254,254)" d="M 1240.57 515.715 C 1242.32 524.024 1242.24 573.732 1240.98 582.914 C 1240.07 590.025 1237.96 596.93 1234.75 603.34 C 1218.93 634.653 1176.88 656.144 1144.58 666.574 C 1060.64 693.68 949.716 691.655 869.818 652.905 C 841.728 639.282 817.469 619.918 807.54 589.733 C 805.151 580.55 806.338 527.701 806.448 514.78 C 823.889 564.391 865.963 580.418 912.99 597.211 C 995.556 626.695 1210.76 617.755 1240.57 515.715 z"/>
<path transform="translate(0,0)" fill="rgb(254,254,254)" d="M 1240.62 636.724 C 1243.18 648.795 1242.01 690.062 1241.04 703.497 C 1237.89 746.861 1177.96 777.396 1142.43 788.163 C 1055.36 814.546 950.655 812.692 868.051 772.873 C 840.803 759.738 816.908 739.443 807.52 710.359 C 805.082 698.199 806.355 650.661 806.48 635.971 C 823.748 683.937 863.333 700.271 909.153 716.958 C 993.99 747.856 1208.66 739.752 1240.62 636.724 z"/>
</svg>