<svg xmlns="http://www.w3.org/2000/svg" viewBox="0 0 600 360" role="img" aria-labelledby="titleRed"><title id="titleRed">Red project thumbnail</title><defs><linearGradient id="gradRed" x1="0" x2="1" y1="0" y2="1"><stop offset="0%" stop-color="#ef4444"/><stop offset="100%" stop-color="#dc2626"/></linearGradient></defs><rect width="600" height="360" rx="30" fill="url(#gradRed)"/><circle cx="300" cy="180" r="62" fill="rgba(255,255,255,0.88)"/><path d="M286 156h28a10 10 0 0 1 10 10v28a10 10 0 0 1-10 10h-28a10 10 0 0 1-10-10v-28a10 10 0 0 1 10-10zm-20 10h14v38h-14zM330 156h14a10 10 0 0 1 10 10v48a10 10 0 0 1-10 10h-14z" fill="#ef4444"/></svg>